<svg xmlns="http://www.w3.org/2000/svg" width="158" height="158" viewBox="0 0 158 158">
  <g id="Forex_Icon" data-name="Forex Icon" transform="translate(-649 -2737)">
    <g id="Rectangle_6319" data-name="Rectangle 6319" transform="translate(649 2737)" fill="#fff" stroke="#e01b22" stroke-width="2">
      <rect width="158" height="158" rx="20" stroke="none"/>
      <rect x="1" y="1" width="156" height="156" rx="19" fill="none"/>
    </g>
    <g id="Group_18167" data-name="Group 18167" transform="translate(685.835 2773.834)">
      <path id="Path_22405" data-name="Path 22405" d="M696.6,46.368a18.347,18.347,0,0,1-1.474,1.827q-5.562,5.382-11.172,10.715c-1.2,1.15-2.632,1.254-3.542.167a3.234,3.234,0,0,1-.637-1.627,19.692,19.692,0,0,1-.028-2.632c.005-.384-.069-.622-.533-.62-2.8.015-5.6.012-8.4.02-.068,0-.136.055-.288.121,5.975,5.189,9.187,11.679,9.18,19.556-.007,7.853-3.21,14.324-9.343,19.651h15.482c1.638,0,2.338.432,2.321,1.431-.017.971-.7,1.39-2.281,1.39-6.341,0-12.682-.009-19.023.016a4.2,4.2,0,0,0-1.646.37,25.117,25.117,0,0,1-21.576-.016,3.965,3.965,0,0,0-1.567-.354c-4.585-.028-9.169-.015-13.752-.017-1.578,0-2-.432-2.009-2q0-1.277-.009-2.553a2.357,2.357,0,0,0-.077-.326l-10.933,10.533,10.926,10.464a6.039,6.039,0,0,0,.089-.685c.008-.851-.012-1.7.009-2.553a1.437,1.437,0,0,1,1.625-1.623c.165,0,.329,0,.494,0h57.644c1.406,0,2.1.466,2.087,1.4s-.708,1.4-2.107,1.4H629.126c0,.863-.053,1.682.011,2.49a2.817,2.817,0,0,1-1.715,3.122h-1.153a15.942,15.942,0,0,1-1.63-1.2q-5.544-5.26-11.039-10.573a14.545,14.545,0,0,1-1.331-1.728v-.989a12.612,12.612,0,0,1,1.254-1.694c3.771-3.682,7.578-7.326,11.359-11a2.427,2.427,0,0,1,2.825-.725,2.39,2.39,0,0,1,1.424,2.544c-.028.926-.007,1.853-.007,2.825h9.322c-6.059-5.239-9.292-11.741-9.287-19.636.005-7.879,3.225-14.365,9.35-19.661h-1.085q-7.329,0-14.658,0c-1.387,0-2.088-.493-2.064-1.439.023-.922.694-1.38,2.043-1.38,6.424,0,12.847.008,19.27-.017A4.175,4.175,0,0,0,643.663,51a25.107,25.107,0,0,1,21.576.012,3.964,3.964,0,0,0,1.567.353c4.557.028,9.114.015,13.671.017,1.684,0,2.079.4,2.08,2.1,0,.874,0,1.749,0,2.866L693.578,45.8l-11.022-10.63c0,.67,0,1.138,0,1.606,0,.632.025,1.264-.012,1.893a1.4,1.4,0,0,1-1.538,1.456c-.192.007-.384,0-.576,0H622.785c-1.407,0-2.095-.464-2.085-1.4s.709-1.4,2.107-1.4h56.936c0-.891.055-1.736-.012-2.573a2.777,2.777,0,0,1,1.716-3.039H682.6a14,14,0,0,1,1.576,1.143q5.466,5.22,10.885,10.492a20.861,20.861,0,0,1,1.539,1.871Zm-42.181,50a22.487,22.487,0,1,0-22.469-22.542A22.5,22.5,0,0,0,654.418,96.364Z" transform="translate(-612.269 -31.709)" fill="#e01b22"/>
      <path id="Path_22406" data-name="Path 22406" d="M612.269,42.224a1.773,1.773,0,0,1,1.8-1.022c4.885.027,9.769.013,14.654.013.137,0,.274,0,.412.007a1.393,1.393,0,0,1,.033,2.786c-.849.043-1.7.015-2.552.015-4.116,0-8.233-.019-12.349.016a2.017,2.017,0,0,1-1.995-.991Z" transform="translate(-612.269 -28.553)" fill="#e01b22"/>
      <path id="Path_22407" data-name="Path 22407" d="M680.117,85.192a1.775,1.775,0,0,1-1.795,1.022c-4.885-.028-9.771-.013-14.655-.013-.137,0-.274,0-.412-.005a1.394,1.394,0,0,1-.036-2.787c.629-.043,1.262-.015,1.893-.015,4.337,0,8.673.017,13.009-.015a2.02,2.02,0,0,1,2,.99Z" transform="translate(-595.787 -14.532)" fill="#e01b22"/>
      <path id="Path_22408" data-name="Path 22408" d="M651.308,62.99c.918-1.831,1.761-3.512,2.6-5.2.294-.588.58-1.181.877-1.767.516-1.014,1.232-1.347,2.036-.954s.987,1.2.49,2.192c-1.356,2.722-2.7,5.45-4.1,8.152a1.465,1.465,0,0,0,.015,1.518c1.4,2.733,2.757,5.484,4.113,8.237a1.42,1.42,0,1,1-2.518,1.244c-1.035-2.056-2.053-4.12-3.082-6.179-.129-.26-.282-.508-.488-.873l-3.169,6.341c-.135.27-.263.544-.408.807a1.412,1.412,0,0,1-1.921.747,1.4,1.4,0,0,1-.6-1.967c.342-.746.722-1.476,1.09-2.212,1.054-2.108,2.129-4.2,3.142-6.332a1.552,1.552,0,0,0,0-1.187c-1.343-2.79-2.735-5.555-4.12-8.325a1.489,1.489,0,0,1,.193-1.953,1.422,1.422,0,0,1,2.288.628c1.067,2.1,2.109,4.215,3.162,6.321C651.011,62.43,651.117,62.621,651.308,62.99Z" transform="translate(-601.393 -23.995)" fill="#e01b22"/>
      <path id="Path_22409" data-name="Path 22409" d="M636.23,57.737v7.01H637.4c2.305,0,4.61-.011,6.915.005,1.137.009,1.757.614,1.666,1.559-.076.79-.642,1.246-1.642,1.251-2.388.015-4.775.005-7.163.005h-.985v.965c0,2.333,0,4.666-.007,7a2.875,2.875,0,0,1-.132.969,1.377,1.377,0,0,1-2.64-.269,4.966,4.966,0,0,1-.032-.822q0-9.262,0-18.524c0-1.56.39-1.955,1.929-1.956q4.529,0,9.057,0c1.109,0,1.735.644,1.607,1.594a1.414,1.414,0,0,1-1.6,1.207c-2.388.012-4.774.005-7.162.005Z" transform="translate(-605.252 -23.991)" fill="#e01b22"/>
    </g>
  </g>
</svg>
