<svg xmlns="http://www.w3.org/2000/svg" width="82.154" height="82" viewBox="0 0 82.154 82">
  <g id="One-stop_shop_Icon" data-name="One-stop shop Icon" transform="translate(-291.924 -972)">
    <circle id="Ellipse_9" data-name="Ellipse 9" cx="35" cy="35" r="35" transform="translate(304.078 984)" fill="#ffe8e9"/>
    <g id="Group_18291" data-name="Group 18291">
      <g id="Rectangle_6313" data-name="Rectangle 6313" transform="translate(291.924 972)" fill="none" stroke="#fff" stroke-width="1" opacity="0.01">
        <rect width="72" height="72" stroke="none"/>
        <rect x="0.5" y="0.5" width="71" height="71" fill="none"/>
      </g>
      <g id="Group_18290" data-name="Group 18290" transform="translate(-207.873 625.59)">
        <path id="Path_22518" data-name="Path 22518" d="M571,415.412H550.569c-1.413,0-1.821-.564-1.376-1.9,1.02-3.062,2.055-6.119,3.055-9.188a1.307,1.307,0,0,1,1.41-1.028c2.751.016,5.5.009,8.255.005a2.225,2.225,0,0,0,2.48-2.456,74.129,74.129,0,0,0-1.366-15.518c-.039-.178-.089-.355-.133-.532q-.727-2.907-3.164-3a4.036,4.036,0,0,0-3.921,2.79c-.436,1.35-.835,2.715-1.17,4.092a1.681,1.681,0,0,1-1.662,1.494c-2.029.189-4.048.483-6.07.746a1.231,1.231,0,0,0-.7.217,4.159,4.159,0,0,0-.506.911,2.868,2.868,0,0,0,.776.236c2.935.017,5.87,0,8.8.023a.711.711,0,0,0,.822-.587c.533-1.68,1.1-3.348,1.667-5.018.278-.823.834-1.174,1.47-.949.652.229.881.827.611,1.645-.48,1.457-.983,2.906-1.443,4.369a1.264,1.264,0,0,0,.028.833,4.229,4.229,0,0,1-.793,4.9,12.412,12.412,0,0,1-5.085,3.168,41.074,41.074,0,0,1-11.052,2.351c-1.505.137-3.016.21-4.578.316v9.826c.157.014.332.044.506.044,1.927,0,3.853-.017,5.779.015a.721.721,0,0,0,.819-.594c1.041-2.982,2.111-5.954,3.174-8.928.083-.234.179-.463.293-.756l2.052.727c-.9,2.538-1.783,5.014-2.666,7.488-.384,1.078-.8,2.146-1.156,3.233a1.32,1.32,0,0,1-1.417,1.026q-8.531-.021-17.061,0a1.27,1.27,0,0,1-1.375-.889q-1.9-5.338-3.8-10.672a.809.809,0,0,1,0-.2l1.969-.713c.1.24.207.456.287.682,1.064,2.974,2.137,5.945,3.174,8.928a.8.8,0,0,0,.907.666c2.06-.034,4.12-.014,6.224-.014v-9.87c-1.56-.106-3.112-.167-4.655-.324-4.414-.447-8.786-1.14-12.791-3.177a13.236,13.236,0,0,1-3.3-2.413,4.014,4.014,0,0,1-.771-4.824,1.264,1.264,0,0,0,.034-.831c-.46-1.463-.964-2.912-1.445-4.368-.271-.82-.044-1.416.607-1.648.635-.226,1.2.124,1.473.944.571,1.692,1.146,3.382,1.688,5.083a.632.632,0,0,0,.726.523c3-.018,6.008-.006,9.012-.017.207,0,.566-.079.588-.18a.82.82,0,0,0-.156-.682,1.905,1.905,0,0,0-.93-.489c-2.155-.305-4.314-.576-6.476-.828a1.261,1.261,0,0,1-1.194-1.034q-.588-2.152-1.23-4.29a4.111,4.111,0,0,0-3.441-2.963,3.094,3.094,0,0,0-3.55,2.445c-.544,2.782-1.047,5.584-1.33,8.4-.27,2.686-.258,5.4-.327,8.106a2.229,2.229,0,0,0,2.54,2.528q4.059,0,8.118,0c.936,0,1.2.2,1.5,1.086q1.536,4.591,3.068,9.184c.414,1.242-.018,1.837-1.331,1.837H500.594v-2.185h8.713v-7.722h-.731c-1.881,0-3.761.006-5.641,0-.834,0-1.276-.4-1.277-1.191q-.012-10.284,0-20.569a1.028,1.028,0,0,1,.054-.219h2.121v19.741h1.685a6.392,6.392,0,0,1-.557-3.453,80.134,80.134,0,0,1,1.2-14.024c.483-2.516,1.19-4.842,3.911-5.86a5.581,5.581,0,0,1,.419-8.569,5.519,5.519,0,1,1,5.334,9.566,2.525,2.525,0,0,0,.2.231,6.655,6.655,0,0,1,1.995,3.306c.26.949.543,1.893.815,2.838.233.811.366.861,1.221.643,1.795-.46,3.585-.954,5.4-1.325a55.63,55.63,0,0,1,15.611-.721,47.923,47.923,0,0,1,10.494,2.068c.743.233.935.114,1.158-.656.217-.747.467-1.487.648-2.243a7.135,7.135,0,0,1,2.416-4.124,5.572,5.572,0,0,1-3.434-4.371,5.274,5.274,0,0,1,1.043-4.084,5.514,5.514,0,1,1,8.127,7.386c.12.071.228.145.345.2a5.518,5.518,0,0,1,3.07,3.754,55.566,55.566,0,0,1,1.508,11.151c.091,1.74.148,3.484.133,5.225-.009,1.011-.192,2.021-.3,3.058h1.4V383.541h2.19c.01.214.03.435.03.656q0,9.873,0,19.744c0,1.227-.33,1.562-1.534,1.563q-2.718,0-5.435,0h-.7v7.7H571ZM514.687,394.5a7.672,7.672,0,0,0,.9,1.565,6.432,6.432,0,0,0,1.828,1.423,38.244,38.244,0,0,0,4.9,1.947,42.732,42.732,0,0,0,10.778,1.6,50.724,50.724,0,0,0,17.592-2.014,14.362,14.362,0,0,0,4.539-2.231,3.282,3.282,0,0,0,1.474-2.294h-.782c-3.3,0-6.6.012-9.9-.005a2.473,2.473,0,0,1-2.452-3.128,3.272,3.272,0,0,1,1.676-2.236c.164-.092.327-.186.56-.319-5.9-1.357-15.878-1.12-19.983.043.235.124.434.219.625.33a3.24,3.24,0,0,1,1.551,3.459c-.343,1.268-1.263,1.856-2.909,1.856H514.687Zm5.17,18.679a.953.953,0,0,0-.017-.219c-.783-2.368-1.562-4.738-2.372-7.1a.715.715,0,0,0-.543-.339c-.939-.035-1.88-.016-2.82-.016h-2.513v7.671Zm40.121-7.67c-1.868,0-3.674-.012-5.48.02-.159,0-.389.268-.456.457-.43,1.207-.822,2.428-1.228,3.643-.39,1.168-.781,2.336-1.179,3.529h8.343Zm-42.919-29.713a3.3,3.3,0,1,0-3.344,3.288A3.309,3.309,0,0,0,517.059,375.793Zm40.746,3.288a3.3,3.3,0,1,0-3.312-3.319A3.314,3.314,0,0,0,557.8,379.081Z" fill="#3a3a3b"/>
        <path id="Path_22519" data-name="Path 22519" d="M535.756,384.587c-3.32,0-4.341-1-4.38-4.319a4,4,0,0,0-1.035-2.556c-.819-.987-1.685-1.935-2.5-2.924a12.8,12.8,0,0,1-2.988-9.854c.453-4.116,3.737-7.456,8.124-8.6,5.317-1.392,11.245,1.435,13.161,6.391,1.309,3.386.66,6.689-.936,9.812a21.652,21.652,0,0,1-2.222,3.125c-.443.582-.96,1.109-1.451,1.653a4.648,4.648,0,0,0-1.358,3.685,3.332,3.332,0,0,1-.106,1.086,3.249,3.249,0,0,1-3.068,2.5C536.582,384.6,536.169,384.587,535.756,384.587Zm-1.156-6.633a2.331,2.331,0,0,0-.912-2.71,5.625,5.625,0,0,1-.733-.724c-.572-.6-.621-1.211-.14-1.694a1.1,1.1,0,0,1,1.689.139c.408.423.751.908,1.189,1.445.619-.662,1.021-1.135,1.469-1.559a1.1,1.1,0,1,1,1.558,1.539,6.866,6.866,0,0,1-1.073,1.063c-.936.662-.828,1.562-.718,2.532a11.052,11.052,0,0,0,1.2-.014.783.783,0,0,0,.463-.293c.734-.934,1.464-1.872,2.166-2.831a27.075,27.075,0,0,0,2.747-3.917,8.858,8.858,0,0,0,.591-7.323c-2.051-5.167-8.785-7.078-13.47-3.835a7.53,7.53,0,0,0-3.645,6.957,11.429,11.429,0,0,0,2.741,6.9,35.052,35.052,0,0,1,2.818,3.458,1.624,1.624,0,0,0,1.8.9C534.427,377.971,534.515,377.964,534.6,377.954Zm3.373,2.278h-4.4c0,.316,0,.587,0,.858.017.891.411,1.285,1.307,1.3.662.008,1.325.02,1.986-.007a1.077,1.077,0,0,0,1.1-1.08C537.992,380.961,537.973,380.62,537.973,380.232Z" fill="#3a3a3b"/>
        <path id="Path_22520" data-name="Path 22520" d="M525.678,358.332l-3.013-3.022,1.439-1.32,2.967,2.99Z" fill="#3a3a3b"/>
        <path id="Path_22521" data-name="Path 22521" d="M524,380.081l-1.353-1.354,3.09-3.043L527,377.068Z" fill="#3a3a3b"/>
        <path id="Path_22522" data-name="Path 22522" d="M544.525,356.768l2.883-2.879,1.467,1.467-2.981,2.976Z" fill="#3a3a3b"/>
        <path id="Path_22523" data-name="Path 22523" d="M547.418,380.046l-2.976-2.966,1.411-1.456,2.981,2.987Z" fill="#3a3a3b"/>
        <path id="Path_22524" data-name="Path 22524" d="M536.85,349.4v4.324h-2.137V349.4Z" fill="#3a3a3b"/>
        <path id="Path_22525" data-name="Path 22525" d="M518.208,365.891h4.3v2.138h-4.3Z" fill="#3a3a3b"/>
        <path id="Path_22526" data-name="Path 22526" d="M553.345,368.066h-4.3v-2.141h4.3Z" fill="#3a3a3b"/>
        <path id="Path_22527" data-name="Path 22527" d="M535.817,360.4a5.4,5.4,0,0,1,5.409,5.438h-2.09c-.417-2.125-1.3-3.007-3.319-3.3Z" fill="#3a3a3b"/>
      </g>
    </g>
  </g>
</svg>
