<svg xmlns="http://www.w3.org/2000/svg" width="82" height="82" viewBox="0 0 82 82">
  <g id="Partnerships_Icon" data-name="Partnerships Icon" transform="translate(-646 -972)">
    <circle id="Ellipse_10" data-name="Ellipse 10" cx="35" cy="35" r="35" transform="translate(658 984)" fill="#ffe8e9"/>
    <g id="Group_18292" data-name="Group 18292">
      <g id="Rectangle_6311" data-name="Rectangle 6311" transform="translate(646 972)" fill="none" stroke="#fff" stroke-width="1" opacity="0.01">
        <rect width="72" height="72" stroke="none"/>
        <rect x="0.5" y="0.5" width="71" height="71" fill="none"/>
      </g>
      <path id="Path_22528" data-name="Path 22528" d="M324.723,370.361a3.172,3.172,0,0,1-2.045,1.752c-1.563.558-3.1,1.186-4.638,1.821a2.424,2.424,0,0,1-2.643-.224.587.587,0,0,0-.537-.005c-1.251.777-2.486,1.581-3.713,2.369.814,3.986-1.022,6.183-4.907,5.922-.783,2.891-1.9,3.755-5.051,3.866a4.275,4.275,0,0,1-1.871,3.344,4.378,4.378,0,0,1-3.81.494,4.254,4.254,0,0,1-3.454,3.638c-2,.426-3.379-.762-4.855-1.9-.33.376-.639.748-.969,1.1a3.7,3.7,0,0,1-3.884,1.173,3.746,3.746,0,0,1-2.786-2.955.757.757,0,0,0-.476-.494,3.835,3.835,0,0,1-3.8-3.3c-.021-.088-.052-.173-.076-.252-2.694-.331-3.777-1.262-4.23-3.618-3.68-.566-5.085-2.781-3.687-5.944-.241-.176-.487-.378-.755-.549-1.363-.867-2.723-1.741-4.106-2.573a1.6,1.6,0,0,0-.8-.041,5.447,5.447,0,0,1-1.822.057c-1.922-.661-3.806-1.44-5.69-2.21a2.1,2.1,0,0,1-1.225-2.83q3.57-9.115,7.184-18.213a2.109,2.109,0,0,1,2.832-1.227c1.879.717,3.746,1.466,5.615,2.212a2.211,2.211,0,0,1,1.465,2.183.746.746,0,0,0,.341.543,9.63,9.63,0,0,0,4.245,1c2.94.054,5.911.008,8.774.925.2.063.56-.134.74-.314A5.851,5.851,0,0,1,287.4,354a17.281,17.281,0,0,1,3.339.092c.814.064,1.618.251,2.427.378s1.248.579,1.17,1.211c-.084.669-.632,1.005-1.49.879-1.181-.174-2.362-.355-3.537-.562a3.4,3.4,0,0,0-3.175,1.08A64.008,64.008,0,0,1,278.1,364c-.513.369-1.045.711-1.561,1.077-.674.477-.673.844-.013,1.37a4.108,4.108,0,0,0,3.99.6,13.345,13.345,0,0,0,4.768-2.893c1.517-1.3,2.6-1.262,4.03.123a12.093,12.093,0,0,0,10.517,3.532,1.886,1.886,0,0,1,1.495.4c2.8,2.084,5.613,4.148,8.448,6.239l4.522-2.905-5.991-15.19a9.892,9.892,0,0,0-1.188.413,11.849,11.849,0,0,1-8.349.74c-.249-.061-.512-.066-.761-.13a1.034,1.034,0,0,1-.854-1.184.984.984,0,0,1,1.15-.874c1.023.114,2.043.27,3.055.454a6.09,6.09,0,0,0,3.243-.328c.964-.351,1.923-.714,2.865-1.065-.009-1.612.349-2.15,1.828-2.742q2.541-1.017,5.09-2.013a2.151,2.151,0,0,1,3.05,1.348q1.3,3.258,2.581,6.525c.326.827.162,1.4-.464,1.661s-1.156-.043-1.483-.865c-.89-2.237-1.773-4.477-2.69-6.793l-5.816,2.292,7.241,18.356,5.815-2.291-2.431-6.189c-.068-.174-.154-.344-.206-.522a1.063,1.063,0,0,1,.595-1.338,1.028,1.028,0,0,1,1.345.566c.256.551.457,1.127.686,1.69q1.055,2.588,2.113,5.175Zm-56.035,5.113c.576-.664,1.119-1.339,1.713-1.966a3.839,3.839,0,0,1,6.456,1.5c.087.286.143.582.209.859,2.584.2,3.554,1.027,4.279,3.609a3.979,3.979,0,0,1,4.231,3.64,3.775,3.775,0,0,1,3.871,2.3,3.934,3.934,0,0,1-.922,4.465,16.866,16.866,0,0,0,2.147,1.291,1.985,1.985,0,0,0,2.489-1.021,1.87,1.87,0,0,0-.623-2.468c-.537-.415-1.083-.821-1.608-1.252a1.045,1.045,0,0,1-.3-1.533,1.079,1.079,0,0,1,1.613-.106c.265.194.516.4.778.6.9.677,1.774,1.384,2.7,2.018a2.1,2.1,0,0,0,2.938-.471,2.045,2.045,0,0,0-.545-2.89c-.871-.674-1.751-1.337-2.614-2.02a1.059,1.059,0,1,1,1.291-1.658c.3.219.593.459.892.685,1.026.778,2.027,1.595,3.089,2.321a2.092,2.092,0,0,0,2.925-.538,2,2,0,0,0-.561-2.83c-1.021-.786-2.045-1.569-3.06-2.362-.4-.312-.689-.755-.4-1.212a1.8,1.8,0,0,1,1-.7c.238-.063.606.19.858.378,1.445,1.08,2.861,2.2,4.308,3.272a2.1,2.1,0,0,0,3.108-.319,2.175,2.175,0,0,0-.632-3.081q-3.92-2.911-7.871-5.782a1.421,1.421,0,0,0-.9-.242,14.292,14.292,0,0,1-11.7-4.2c-.458-.439-.724-.456-1.2-.036a15.063,15.063,0,0,1-5.355,3.273,6.237,6.237,0,0,1-5.944-.8c-1.975-1.458-1.882-3.538.1-4.969,2.01-1.451,3.929-3.029,5.893-4.544a3.476,3.476,0,0,1,.551-.288l-.175-.339c-1.436-.12-2.871-.262-4.308-.354-1.75-.113-3.516-.082-5.25-.311a16.184,16.184,0,0,1-3.035-1.025l-6.113,15.5Zm-6.622-23.983-7.243,18.359,5.821,2.293,7.24-18.356Zm8.73,29.438a2.722,2.722,0,0,0,.951-.5c1-1.082,1.963-2.2,2.867-3.361a1.7,1.7,0,0,0-2.574-2.2c-1.014,1.1-1.98,2.245-2.911,3.416a1.522,1.522,0,0,0-.06,1.729A1.793,1.793,0,0,0,270.8,380.93Zm8.463-1.144a1.95,1.95,0,0,0-1.168-1.633,1.649,1.649,0,0,0-1.925.441q-1.326,1.5-2.6,3.04a1.725,1.725,0,1,0,2.611,2.253c.87-.98,1.722-1.975,2.541-3A5.454,5.454,0,0,0,279.258,379.786Zm8.51,7.2a1.993,1.993,0,0,0-1.186-1.633,1.672,1.672,0,0,0-1.919.455q-1.308,1.467-2.554,2.986a1.731,1.731,0,1,0,2.629,2.238c.835-.947,1.661-1.9,2.448-2.891A6.156,6.156,0,0,0,287.768,386.99Zm-4.276-3.611a1.931,1.931,0,0,0-1.156-1.624,1.635,1.635,0,0,0-1.918.447c-.9,1.013-1.788,2.043-2.642,3.1a1.676,1.676,0,0,0,.21,2.441,1.715,1.715,0,0,0,2.4-.2q1.357-1.514,2.634-3.1A4.532,4.532,0,0,0,283.492,383.379Z" transform="translate(393.277 636.602)" fill="#3a3a3b"/>
    </g>
  </g>
</svg>
