<svg xmlns="http://www.w3.org/2000/svg" width="100" height="100" viewBox="0 0 100 100">
  <g id="Group_20866" data-name="Group 20866" transform="translate(-1004 -1700)">
    <g id="Rectangle_11053" data-name="Rectangle 11053" transform="translate(1004 1700)" fill="none" stroke="#fff" stroke-width="1" opacity="0">
      <rect width="100" height="100" stroke="none"/>
      <rect x="0.5" y="0.5" width="99" height="99" fill="none"/>
    </g>
    <circle id="Ellipse_9" data-name="Ellipse 9" cx="39.984" cy="39.984" r="39.984" transform="translate(1023.996 1720.033)" fill="#ffe8e9"/>
    <g id="Rectangle_6311" data-name="Rectangle 6311" transform="translate(1004 1700)" fill="none" stroke="#fff" stroke-width="1" opacity="0.01">
      <rect width="87" height="87" stroke="none"/>
      <rect x="0.5" y="0.5" width="86" height="86" fill="none"/>
    </g>
    <g id="Rectangle_6313" data-name="Rectangle 6313" transform="translate(1004 1700)" fill="none" stroke="#fff" stroke-width="1" opacity="0.01">
      <rect width="87" height="87" stroke="none"/>
      <rect x="0.5" y="0.5" width="86" height="86" fill="none"/>
    </g>
    <g id="Group_20865" data-name="Group 20865" transform="translate(267.626 1237.699)">
      <path id="Path_23019" data-name="Path 23019" d="M802.5,501.731l12.929,0a7.225,7.225,0,0,0,1.172-.076,3.26,3.26,0,0,0,2.731-2.91,13.364,13.364,0,0,0,.032-1.579,3.391,3.391,0,0,0-2.771-3.419,28.747,28.747,0,0,0-7.438-1.113c-.382,0-.768.011-1.153.033-.6.036-1.209.047-1.814.047-.477,0-.951-.007-1.428-.015l-.005.4h0l-.227-.4c-.434-.007-.87-.013-1.306-.015-.161,0-.324-.011-.546-.024l-.2-.011c0-1.219,0-5.039,0-6a6.983,6.983,0,0,0-4.237-6.7l.056-.066a2.323,2.323,0,0,0,.263-.344l.405-.673a19.552,19.552,0,0,0,1.1-1.972,1.311,1.311,0,0,0,.033-1.057,1.364,1.364,0,0,0-.785-.752,1.4,1.4,0,0,0-.5-.1,1.432,1.432,0,0,0-1.272.92c-.023.051-.219.534-.219.534a4.868,4.868,0,0,1-4.5,2.965,5.013,5.013,0,0,1-3.294-1.258c-1.909-1.668-1.785-3.835-1.652-6.131l0-.084,13.967,0c1.488,0,1.652-.958,1.654-1.367,0-.608-.278-1.339-1.651-1.364h-1.328c-.013-.11-.033-.268-.037-.319a5.644,5.644,0,0,0-5.9-5.557l-2.18-.011c-.595,0-1.191,0-1.788.019a5.752,5.752,0,0,0-5.382,4.448c-.068.309-.108.624-.155,1l-.046.369-.084.032-.608.008c-.317,0-.635.005-.951.016-.96.033-1.5.5-1.511,1.32-.019.843.552,1.369,1.531,1.408.217.007.434.009.661.009l1.029,0c-.145,2.828-.052,5.763,2.355,8.058a7.3,7.3,0,0,0-3.5,3.35,8.059,8.059,0,0,1-.813,1.295q-7.12,9.083-14.265,18.145a3.311,3.311,0,0,0-.761,3.263,6.326,6.326,0,0,0,.782,1.407c.134.2.274.405.406.624l-4.022,8.919-2.654-1.193c-1.89-.853-3.757-1.695-5.637-2.508a6.064,6.064,0,0,0-2.42-.519,5.435,5.435,0,0,0-5,3.363q-3.859,8.505-7.65,17.041a5.46,5.46,0,0,0,2.857,7.461q1.945.9,3.918,1.739a1.025,1.025,0,0,1,.676.859,5.693,5.693,0,0,0,3.866,4.4l.5.186.289.131,2.051.019.267-.1c.129-.05.258-.1.392-.142a5.874,5.874,0,0,0-.238-11.363,6.049,6.049,0,0,0-1.393-.165,5.88,5.88,0,0,0-5.188,3.117c-.035.061-.163.319-.276.541-.434-.209-.871-.408-1.306-.6a32.971,32.971,0,0,1-3.2-1.6,2.568,2.568,0,0,1-.712-3.378q2.03-4.556,4.08-9.1s2.974-6.626,3.465-7.714a2.784,2.784,0,0,1,2.554-1.931,3.974,3.974,0,0,1,1.6.381l1.381.626s-.228.547-.307.719l-4.519,9.867c-.084.181-.166.36-.236.549a1.356,1.356,0,0,0,1.235,1.911,1.43,1.43,0,0,0,1.252-.81c.132-.24.243-.49.353-.738l4.751-10.371,4.092,1.829-.122.3c-.108.268-.21.517-.319.762l-5.056,11.242c-.061.132-.12.263-.173.4a1.392,1.392,0,0,0,.6,1.862,1.362,1.362,0,0,0,.6.141,1.423,1.423,0,0,0,1.286-.886c.517-1.1,1.012-2.211,1.509-3.323l8.995-20.011c.048-.1.219-.461.34-.712a3.336,3.336,0,0,0,.424.027,5.326,5.326,0,0,0,3-1.294,30.124,30.124,0,0,0,6.205-6.519c.349-.452.7-.9,1.061-1.357a5.461,5.461,0,0,1,.756-.824v.551c.015.764.019,1.529.021,2.3.007,1.679.013,3.415.17,5.112.248,2.676.563,5.39.869,8.024.258,2.206.513,4.412.734,6.624a8.4,8.4,0,0,1-.3,3.031c-1.306,4.762-2.654,9.513-4,14.264l-1.209,4.265c-.659,2.328-.308,3.241,1.705,4.439l.093.056h10.809l.1-.058c2.079-1.264,2.385-2.34,1.3-4.613l-.307-.626a14.858,14.858,0,0,1-.692-1.521,2.1,2.1,0,0,1-.106-1.221q1.857-6.489,3.764-12.963l.829-2.834c.043-.143.093-.283.15-.44l.032-.092a5.307,5.307,0,0,1,2.027,2.978q2.777,9.171,5.609,18.327a3.43,3.43,0,0,0,3.274,2.748,4.282,4.282,0,0,0,1.271-.206c2.606-.809,5.189-1.65,7.681-2.5a2.659,2.659,0,0,0,.971-4.624c-.4-.371-.809-.727-1.219-1.082-.462-.4-.924-.8-1.365-1.222a2.514,2.514,0,0,1-.653-1.013c-.356-1.134-.7-2.273-1.041-3.414l-.073-.238c-.484-1.616-.968-3.235-1.492-4.841q-.382-1.181-.756-2.367c-.9-2.821-1.824-5.738-2.971-8.523-1.379-3.344-3.018-6.646-4.614-9.865l-.939-1.9a5.9,5.9,0,0,1-.413-2.945C802.51,502.508,802.521,502.122,802.5,501.731Zm13.641-5.237c.59.218.58.647.49,1.357a3.771,3.771,0,0,0-.038.546.515.515,0,0,1-.128.393,1.012,1.012,0,0,1-.723.2h-2.6v-2.611c0-.134.011-.268.023-.434l.009-.162c.275.06.552.116.857.175A13.352,13.352,0,0,1,816.143,496.494Zm-7.971,48.4a.647.647,0,0,1-.607-.5c-.185-.538-.361-1.08-.552-1.663l-.223-.675,1.348-.44c1.707-.555,3.386-1.1,5.022-1.623l.13-.023a.653.653,0,0,1,.364.122c.63.531,1.244,1.077,1.909,1.663l.643.567-1.82.6c-2.027.664-3.981,1.306-5.94,1.931A.868.868,0,0,1,808.172,544.9Zm-2.2-5.455c-.409-1.344-1.755-5.752-2.007-6.575-.677-2.19-1.442-4.671-2.1-7.075a9.21,9.21,0,0,0-3.392-4.815.927.927,0,0,1-.295-.715c.9-3.212,1.841-6.415,2.793-9.668l.4-1.32c5.2,8.843,7.964,18.677,10.626,28.2ZM794.642,495.2c-.229-.515-2.412-5.391-2.617-5.855a1.827,1.827,0,0,1,.728-2.631,1.664,1.664,0,0,1,.713-.163,2.083,2.083,0,0,1,1.818,1.384l.644,1.424c.659,1.445,1.316,2.89,1.938,4.351a2.6,2.6,0,0,0,2.686,1.724c1.279-.017,2.555-.021,3.832-.021l5.962.008v3.537l-.146.008c-.189.015-.383.029-.575.031h-9.157A5.928,5.928,0,0,1,794.642,495.2Zm5.094-4.066-.58-1.294c-.522-1.171-1.043-2.343-1.6-3.5a4.512,4.512,0,0,0-8.191,3.78l.611,1.395c.774,1.767,1.573,3.594,2.437,5.355a8.363,8.363,0,0,0,6.846,4.8c.118.015.238.029.352.052a.893.893,0,0,1,.081.042v2.014H786.011l-.005-.141c-.012-.186-.024-.38-.024-.6q0-8.137,0-16.275a4.244,4.244,0,0,1,4.586-4.606c.844,0,1.69-.008,2.532-.008q1.086,0,2.169.009a4.182,4.182,0,0,1,4.465,4.463C799.737,487.544,799.735,490.286,799.735,491.132ZM789.968,542.2c.388.768.754,1.545,1.144,2.367l.275.578-.125.016a3.173,3.173,0,0,1-.41.04l-4.488,0c-1.252,0-2.508,0-3.8.019-.186,0-.444-.015-.538-.139-.072-.1-.066-.28.016-.563.161-.554.3-1.114.466-1.758l.186-.733h2.723c1.407,0,2.8,0,4.2.011A.5.5,0,0,1,789.968,542.2Zm-.83-2.9c-.866-.015-1.732-.017-2.609-.017l-3.079,0,2.208-7.65c.562-1.951,1.122-3.9,1.727-5.839a15.044,15.044,0,0,0,.187-6.386s-1.2-10.837-1.415-12.8h13.055l-.005.049a1.883,1.883,0,0,1-.048.332l-2.651,9.093q-3.3,11.32-6.591,22.643C789.784,539.182,789.624,539.3,789.138,539.3Zm8.548-70.168h-9.8a3.1,3.1,0,0,1,.773-2.192,2.739,2.739,0,0,1,1.951-.881c.725-.027,1.453-.038,2.18-.038s1.454.013,2.18.041a2.754,2.754,0,0,1,1.96.942A3.025,3.025,0,0,1,797.686,469.133Zm-14.449,19.813v1.193c0,1.449,0,2.9-.011,4.341a.952.952,0,0,1-.216.5c-1.531,1.959-3.068,3.914-4.631,5.9l-1.288,1.639-2.805-2.193Zm-10.258,17.276a1.125,1.125,0,0,1-.679.294c-.339,0-.723-.246-1.326-.845-.429-.429-.288-.788.1-1.262.335-.41.663-.83.988-1.249l.412-.53.13-.129,2.518,1.971-.606.5C773.985,505.414,773.487,505.824,772.979,506.221Zm-17.863,32.7a3.193,3.193,0,0,1,3.151,3.178,3.153,3.153,0,0,1-6.305-.061,3.207,3.207,0,0,1,3.145-3.117v-.4Z" fill="#3a3a3b"/>
      <path id="Path_23020" data-name="Path 23020" d="M750.72,522.9a1.363,1.363,0,0,0,.388,1.007,1.314,1.314,0,0,0,.952.408A1.4,1.4,0,0,0,753.423,523a1.334,1.334,0,0,0-.367-.978,1.375,1.375,0,0,0-1-.418A1.318,1.318,0,0,0,750.72,522.9Z" transform="translate(3.067 19.137)" fill="#3a3a3b"/>
    </g>
  </g>
</svg>
