<svg xmlns="http://www.w3.org/2000/svg" width="100" height="100" viewBox="0 0 100 100">
  <g id="Group_19377" data-name="Group 19377" transform="translate(-846 -1481)">
    <g id="Rectangle_11053" data-name="Rectangle 11053" transform="translate(846 1481)" fill="none" stroke="#fff" stroke-width="1" opacity="0">
      <rect width="100" height="100" stroke="none"/>
      <rect x="0.5" y="0.5" width="99" height="99" fill="none"/>
    </g>
    <circle id="Ellipse_9" data-name="Ellipse 9" cx="39.984" cy="39.984" r="39.984" transform="translate(865.996 1501.033)" fill="#ffe8e9"/>
    <g id="Rectangle_6311" data-name="Rectangle 6311" transform="translate(846 1481)" fill="none" stroke="#fff" stroke-width="1" opacity="0.01">
      <rect width="87" height="87" stroke="none"/>
      <rect x="0.5" y="0.5" width="86" height="86" fill="none"/>
    </g>
    <g id="Rectangle_6313" data-name="Rectangle 6313" transform="translate(846 1481)" fill="none" stroke="#fff" stroke-width="1" opacity="0.01">
      <rect width="87" height="87" stroke="none"/>
      <rect x="0.5" y="0.5" width="86" height="86" fill="none"/>
    </g>
    <g id="Group_18293" data-name="Group 18293" transform="translate(253.385 1131.602)">
      <path id="Path_22529" data-name="Path 22529" d="M633.326,349.4h5.426a4.964,4.964,0,0,0,.65.139,42.512,42.512,0,0,1,20.372,6.94c.539.352,1.07.717,1.583,1.061,3.274-1.958,6.544-1.737,9.038.576,2.565,2.379,2.893,5.552.965,9.463.069.109.14.23.22.345a42.455,42.455,0,0,1,7.243,17.653c.259,1.584.422,3.183.63,4.775v5.268c-.048.22-.11.436-.143.657-.294,2.013-.48,4.049-.892,6.037-3.49,16.872-17.875,30.663-34.816,33.417-1.61.262-3.234.449-4.85.671h-5.257a6.311,6.311,0,0,0-.743-.135,41.927,41.927,0,0,1-17.1-4.971c-1.7-.924-3.333-1.987-5-2.99-3.179,1.9-6.422,1.7-8.907-.573a7,7,0,0,1-2.179-3.842,7.209,7.209,0,0,1,1.188-5.622c-.136-.209-.242-.375-.352-.539-7.666-11.375-9.63-23.7-6.059-36.917a40.76,40.76,0,0,1,5.525-11.955,1.694,1.694,0,0,1,2.4-.684,1.735,1.735,0,0,1,.443,2.522c-.262.437-.569.848-.811,1.292-.927,1.7-1.837,3.413-2.784,5.177a2.862,2.862,0,0,0,.415.1c5.283,0,10.567,0,15.85.018.505,0,.573-.279.712-.641a6.916,6.916,0,0,1,5.463-4.661c.607-.113.785-.386.935-.948.929-3.463,1.749-6.967,2.938-10.341a72.167,72.167,0,0,1,3.419-7.212c.118.026.041-.012-.03,0-.224.027-.446.065-.667.11a39.7,39.7,0,0,0-14.926,6.363,1.714,1.714,0,0,1-2.6-.269,1.739,1.739,0,0,1,.7-2.531,42.376,42.376,0,0,1,17.245-7.081C630.142,349.8,631.738,349.617,633.326,349.4Zm40.84,55.708a40.355,40.355,0,0,0,.024-24.392H651.083c.025.474.034.895.071,1.313a108.319,108.319,0,0,1,.319,16.375,2,2,0,0,0,1.266,2.33,6.62,6.62,0,0,1,3.353,4.374Zm-76.281-.018h22.892l-.385-19.39s-.205-.1-.41-.191a6.893,6.893,0,0,1-3.863-4.164.879.879,0,0,0-1.027-.691c-5.481.018-10.962.01-16.442.013-.246,0-.491.025-.756.041A40.563,40.563,0,0,0,597.885,405.089Zm49.775-24.425h-1.007c-5.112,0-10.224.031-15.335-.025-1.069-.012-1.813.1-2.076,1.3a3.84,3.84,0,0,1-.761,1.308,7.256,7.256,0,0,1-4.438,2.769,117.36,117.36,0,0,0,.4,19.073h17.76c1.056-2.892,2.644-4.508,5.183-5.158.568-.145.705-.369.7-.9-.017-4.215.03-8.428-.031-12.642C648.033,384.5,647.8,382.62,647.66,380.664Zm-.394-3.4c-.306-1.783-.559-3.485-.893-5.171a51.647,51.647,0,0,0-4.344-13.6,14.116,14.116,0,0,0-3.342-4.551c-1.809-1.52-3.532-1.616-5.235,0a17.146,17.146,0,0,0-3,3.846c-2.523,4.391-3.71,9.261-4.7,14.179-.041.205.239.582.467.716a6.969,6.969,0,0,1,3.261,3.868c.207.63.521.726,1.092.723,5.256-.017,10.512-.01,15.768-.01Zm-22.45,31.3c.3,1.741.553,3.439.886,5.121A51.729,51.729,0,0,0,630,427.21,13.693,13.693,0,0,0,633.569,432c1.694,1.337,3.278,1.4,4.908-.017a13.5,13.5,0,0,0,2.533-2.929c2.941-4.639,4.216-9.888,5.321-15.183a.69.69,0,0,0-.263-.593,7.459,7.459,0,0,1-3.847-4.709Zm18.075,23.843a40.174,40.174,0,0,0,29.978-23.855H656.123a2.157,2.157,0,0,0-.119.246,7.177,7.177,0,0,1-5.707,5.089,1.064,1.064,0,0,0-.636.7C648.361,420.816,646.684,426.895,642.892,432.409Zm16.248-72.256a39.239,39.239,0,0,0-16.187-6.749c4.86,7.311,6.419,15.514,7.731,23.823h22.393l-4.221-7.529c-3.236,1.319-6.03.968-8.343-1.366C658.227,366.026,657.885,363.25,659.14,360.153ZM599,408.57l4.22,7.531c3.122-1.285,5.853-1,8.157,1.181,2.467,2.34,2.839,5.208,1.567,8.368a39.359,39.359,0,0,0,16.177,6.742c-4.858-7.306-6.418-15.508-7.731-23.822Zm62.818-45.292a3.728,3.728,0,1,0,3.761-3.682A3.75,3.75,0,0,0,661.819,363.278Zm-42.737,15.688a3.728,3.728,0,1,0,3.7-3.737A3.746,3.746,0,0,0,619.082,378.966ZM602.8,422.415a3.728,3.728,0,1,0,3.756-3.686A3.748,3.748,0,0,0,602.8,422.415Zm50.06-15.578a3.7,3.7,0,0,0-3.685-3.741,3.737,3.737,0,1,0-.009,7.473A3.709,3.709,0,0,0,652.862,406.837Z" transform="translate(0)" fill="#3a3a3b"/>
      <path id="Path_22530" data-name="Path 22530" d="M605.084,360.693a1.686,1.686,0,0,1-1.7,1.712,1.708,1.708,0,0,1-1.676-1.663,1.73,1.73,0,0,1,1.711-1.721A1.7,1.7,0,0,1,605.084,360.693Z" transform="translate(2.801 2.965)" fill="#3a3a3b"/>
    </g>
  </g>
</svg>
