<svg xmlns="http://www.w3.org/2000/svg" width="100" height="100" viewBox="0 0 100 100">
  <g id="Group_20864" data-name="Group 20864" transform="translate(-846 -1700)">
    <g id="Rectangle_11053" data-name="Rectangle 11053" transform="translate(846 1700)" fill="none" stroke="#fff" stroke-width="1" opacity="0">
      <rect width="100" height="100" stroke="none"/>
      <rect x="0.5" y="0.5" width="99" height="99" fill="none"/>
    </g>
    <circle id="Ellipse_9" data-name="Ellipse 9" cx="39.984" cy="39.984" r="39.984" transform="translate(865.996 1720.033)" fill="#ffe8e9"/>
    <g id="Rectangle_6311" data-name="Rectangle 6311" transform="translate(846 1700)" fill="none" stroke="#fff" stroke-width="1" opacity="0.01">
      <rect width="87" height="87" stroke="none"/>
      <rect x="0.5" y="0.5" width="86" height="86" fill="none"/>
    </g>
    <g id="Rectangle_6313" data-name="Rectangle 6313" transform="translate(846 1700)" fill="none" stroke="#fff" stroke-width="1" opacity="0.01">
      <rect width="87" height="87" stroke="none"/>
      <rect x="0.5" y="0.5" width="86" height="86" fill="none"/>
    </g>
    <path id="Path_22472" data-name="Path 22472" d="M333.329,315.757a2.422,2.422,0,0,1-.916-1.709c-.851-6.107-1.781-12.2-2.589-18.317a19.665,19.665,0,0,1,.151-3.809q.832-12.623,1.68-25.248.4-5.973.818-11.944a1.386,1.386,0,0,1,1.561-1.5c1.216-.016,2.434-.013,3.651,0,.986.009,1.6.558,1.583,1.38a1.383,1.383,0,0,1-1.548,1.332c-.843.013-1.688,0-2.6,0-.144,2.124-.286,4.179-.424,6.233l-1.3,19.4c-.3,4.462-.7,8.921-.846,13.388a32.091,32.091,0,0,0,.664,5.464q.959,6.763,1.959,13.521a1.836,1.836,0,0,1-.821,1.8Z" transform="translate(526.233 1471.242)" fill="#3a3a3b"/>
    <path id="Path_22473" data-name="Path 22473" d="M359.883,303.528a1.852,1.852,0,0,1-.724-2.206c.461-1.979.807-3.984,1.218-5.975.2-.966.872-1.47,1.653-1.281a1.422,1.422,0,0,1,.986,1.861c-.39,1.965-.737,3.942-1.2,5.892a7.515,7.515,0,0,1-.915,1.709Z" transform="translate(535.015 1483.473)" fill="#3a3a3b"/>
    <path id="Path_22474" data-name="Path 22474" d="M387.014,275.812V248.626h-33.25a4.97,4.97,0,0,1-.847-.021,1.35,1.35,0,0,1-.017-2.676,3.572,3.572,0,0,1,.678-.021q17.152,0,34.3,0c1.457,0,1.887.42,1.887,1.848q0,14.481,0,28.961c0,1.376-.444,1.812-1.84,1.812q-17.2,0-34.389,0a3.089,3.089,0,0,1-.677-.027,1.29,1.29,0,0,1-1.128-1.378,1.272,1.272,0,0,1,1.136-1.283,4.928,4.928,0,0,1,.931-.029h33.213Z" transform="translate(532.817 1469.049)" fill="#3a3a3b"/>
    <path id="Path_22475" data-name="Path 22475" d="M362.637,234.4q9.256,0,18.512,0c3.677,0,5.9,2.241,5.9,5.94q0,2.973,0,5.945c0,1.074-.506,1.7-1.35,1.7s-1.361-.617-1.363-1.686c-.007-2.011,0-4.02,0-6.031,0-2.09-1.049-3.149-3.117-3.15q-18.64,0-37.281,0a2.753,2.753,0,0,0-3.089,3.086q0,18.388,0,36.778c0,.226,0,.452,0,.68-.023.986-.559,1.6-1.38,1.587s-1.333-.624-1.335-1.63q0-18.9.007-37.8a5.376,5.376,0,0,1,5.477-5.416C349.956,234.39,356.3,234.4,362.637,234.4Z" transform="translate(528.738 1465.602)" fill="#3a3a3b"/>
    <path id="Path_22476" data-name="Path 22476" d="M380.573,288.363V274.655c0-.425-.019-.851.01-1.274a1.35,1.35,0,0,1,2.7-.023c.022.224.009.452.009.678q0,9.642,0,19.285c0,3.678-2.246,5.915-5.93,5.916q-12.358,0-24.716,0a6.583,6.583,0,0,1-.68-.01,1.35,1.35,0,0,1-.029-2.694,7.689,7.689,0,0,1,.849-.013h24.462c2.363,0,3.326-.976,3.327-3.366v-2.07H352.714a4.709,4.709,0,0,1-.847-.022,1.348,1.348,0,0,1,0-2.673,4.84,4.84,0,0,1,.847-.021h27.859Z" transform="translate(532.501 1476.889)" fill="#3a3a3b"/>
    <path id="Path_22478" data-name="Path 22478" d="M341.285,272.741c-.507,3.534-1.007,7.033-1.509,10.531-.338,2.351-.671,4.7-1.015,7.053-.135.929-.733,1.461-1.509,1.375a1.4,1.4,0,0,1-1.184-1.742q.947-6.677,1.913-13.353.374-2.6.756-5.205c.155-1.038.591-1.395,1.632-1.439,3.8-.165,6.779,1.215,8.447,4.741a9.542,9.542,0,0,1,.773,3.518c.118,2.259.023,4.527.047,6.792a1.456,1.456,0,0,0,.287.909,13.57,13.57,0,0,1,3.577,8.522c.225,3.127.159,6.276.19,9.416a1.352,1.352,0,1,1-2.7,0c-.021-2.237-.006-4.474-.01-6.709a16.748,16.748,0,0,0-1.07-6.235,9.47,9.47,0,0,0-2.4-3.553,2.148,2.148,0,0,1-.58-1.406c-.056-2.6-.008-5.208-.034-7.812A5.354,5.354,0,0,0,341.285,272.741Z" transform="translate(528.115 1476.256)" fill="#3a3a3b"/>
    <path id="Path_22479" data-name="Path 22479" d="M351.3,262.517q0,8.878,0,17.755a3.261,3.261,0,0,1-.043.845,1.347,1.347,0,0,1-2.645-.079,4.369,4.369,0,0,1-.027-.846q0-17.714,0-35.425c0-.113,0-.227,0-.341.016-1.048.55-1.678,1.4-1.652.816.026,1.317.633,1.317,1.648Q351.309,253.47,351.3,262.517Z" transform="translate(531.872 1468.111)" fill="#3a3a3b"/>
    <path id="Path_22480" data-name="Path 22480" d="M358.571,275.193c.9,0,1.81-.017,2.715,0a4.072,4.072,0,0,1-.025,8.144q-2.757.043-5.515,0a4.072,4.072,0,0,1,.023-8.143C356.7,275.177,357.638,275.193,358.571,275.193Zm0,2.719c-.877,0-1.755-.016-2.632,0a1.359,1.359,0,1,0-.018,2.707q2.589.027,5.179,0a1.359,1.359,0,1,0,.018-2.707C360.266,277.9,359.417,277.911,358.567,277.911Z" transform="translate(532.814 1477.826)" fill="#3a3a3b"/>
    <path id="Path_22482" data-name="Path 22482" d="M357.268,242.342a1.353,1.353,0,1,1,1.345-1.361A1.365,1.365,0,0,1,357.268,242.342Z" transform="translate(534.068 1467.172)" fill="#3a3a3b"/>
    <g id="Rectangle_11190" data-name="Rectangle 11190" transform="translate(903 1721)" fill="none" stroke="#3a3a3b" stroke-linecap="round" stroke-linejoin="round" stroke-width="2.7">
      <rect width="14" height="13" stroke="none"/>
      <rect x="1.35" y="1.35" width="11.3" height="10.3" fill="none"/>
    </g>
    <line id="Line_65" data-name="Line 65" x1="29" transform="translate(886.5 1738.5)" fill="none" stroke="#3a3a3b" stroke-linecap="round" stroke-width="2.7"/>
    <line id="Line_66" data-name="Line 66" x1="6.012" transform="translate(886.488 1732.268)" fill="none" stroke="#3a3a3b" stroke-linecap="round" stroke-width="2.7"/>
    <line id="Line_68" data-name="Line 68" x1="12" transform="translate(886.488 1727.5)" fill="none" stroke="#3a3a3b" stroke-linecap="round" stroke-width="2.7"/>
  </g>
</svg>
