<svg xmlns="http://www.w3.org/2000/svg" width="158" height="158" viewBox="0 0 158 158">
  <g id="Travel_INsurance_Icon" data-name="Travel INsurance Icon" transform="translate(-649 -2534)">
    <g id="Path_22807" data-name="Path 22807" transform="translate(649 2534)" fill="#fff">
      <path d="M 138.6134948730469 157 L 19.38649940490723 157 C 14.47527980804443 157 9.858039855957031 155.0874786376953 6.385280132293701 151.6147155761719 C 2.912539958953857 148.1419830322266 1 143.5247192382812 1 138.6134948730469 L 1 19.38649940490723 C 1 14.47529983520508 2.912539958953857 9.858039855957031 6.385280132293701 6.385280132293701 C 9.858039855957031 2.912539958953857 14.47529983520508 1 19.38649940490723 1 L 138.6134948730469 1 C 143.5247192382812 1 148.1419830322266 2.912539958953857 151.6147155761719 6.385280132293701 C 155.0874786376953 9.858039855957031 157 14.47527980804443 157 19.38649940490723 L 157 138.6134948730469 C 157 143.5247192382812 155.0874786376953 148.1419830322266 151.6147155761719 151.6147155761719 C 148.1419830322266 155.0874786376953 143.5247192382812 157 138.6134948730469 157 Z" stroke="none"/>
      <path d="M 19.38650512695312 2 C 14.74238586425781 2 10.37626647949219 3.808517456054688 7.092391967773438 7.092391967773438 C 3.808517456054688 10.37626647949219 2 14.74238586425781 2 19.38650512695312 L 2 138.6134948730469 C 2 143.2576141357422 3.808517456054688 147.6237335205078 7.092391967773438 150.9076080322266 C 10.37626647949219 154.1914825439453 14.74238586425781 156 19.38650512695312 156 L 138.6134948730469 156 C 143.2576141357422 156 147.6237335205078 154.1914825439453 150.9076080322266 150.9076080322266 C 154.1914825439453 147.6237335205078 156 143.2576141357422 156 138.6134948730469 L 156 19.38650512695312 C 156 14.74238586425781 154.1914825439453 10.37626647949219 150.9076080322266 7.092391967773438 C 147.6237335205078 3.808517456054688 143.2576141357422 2 138.6134948730469 2 L 19.38650512695312 2 M 19.38650512695312 0 L 138.6134948730469 0 C 149.3203735351562 0 158 8.67962646484375 158 19.38650512695312 L 158 138.6134948730469 C 158 149.3203735351562 149.3203735351562 158 138.6134948730469 158 L 19.38650512695312 158 C 8.67962646484375 158 0 149.3203735351562 0 138.6134948730469 L 0 19.38650512695312 C 0 8.67962646484375 8.67962646484375 0 19.38650512695312 0 Z" stroke="none" fill="#e01b22"/>
    </g>
    <g id="Group_18165" data-name="Group 18165" transform="translate(685.989 2570.834)">
      <path id="Path_22402" data-name="Path 22402" d="M712.123,116.46a7.253,7.253,0,0,1-4.008-3.2c-2.15-3.06-4.38-6.066-6.28-8.6A9.364,9.364,0,0,0,700,102.8c-2.1-1.583-4.223-3.146-6.343-4.708q-2.035-1.5-4.064-3.005a4.733,4.733,0,0,1-2.014-5.078,4.89,4.89,0,0,1,3.98-3.967,4.729,4.729,0,0,1,1.09-.129,5.753,5.753,0,0,1,2.357.545q1.606.712,3.216,1.415c1.619.708,3.239,1.418,4.85,2.141a1.535,1.535,0,0,0,.625.16,1.165,1.165,0,0,0,.875-.459q5.894-6.4,11.815-12.773l4.89-5.28a2.323,2.323,0,0,0-.683-4.03q-14.2-7.532-28.4-15.054a5.768,5.768,0,0,1-3-3.628,5.062,5.062,0,0,1,.715-4.078A4.5,4.5,0,0,1,693.72,42.7a5.039,5.039,0,0,1,1.022.109q10.768,2.252,21.535,4.526l10.7,2.252c3.451.723,6.9,1.447,10.346,2.2a3.335,3.335,0,0,0,.711.082,2.7,2.7,0,0,0,2.046-.971q2.345-2.5,4.707-4.983c3.144-3.318,6.4-6.75,9.523-10.193a9.85,9.85,0,0,1,7.818-3.261c.45,0,.9.019,1.366.054a12.537,12.537,0,0,1,1.9.333c3.365.808,5.3,3.042,5.906,6.831.029.19.073.378.117.565l.054.24-.007,2.752c-.06.211-.114.491-.17.771a7.47,7.47,0,0,1-.481,1.731,10.25,10.25,0,0,1-1.863,3.04c-3.245,3.171-6.61,6.33-9.864,9.384l-2.468,2.318a2.018,2.018,0,0,1-1.357.6A1.378,1.378,0,0,1,753.9,59.92a1.617,1.617,0,0,1,.68-1.631q1.751-1.649,3.481-3.318c2.514-2.411,5.115-4.9,7.766-7.244,2.216-1.957,3.005-4.427,2.477-7.77-.427-2.715-1.707-3.979-4.416-4.361a12.31,12.31,0,0,0-1.674-.109,18.028,18.028,0,0,0-1.837.1,5.538,5.538,0,0,0-3.585,1.882q-3.947,4.239-7.927,8.445-3.279,3.475-6.544,6.96a5.629,5.629,0,0,1-4.257,1.985,6.968,6.968,0,0,1-1.452-.162q-12.264-2.606-24.528-5.191l-17.408-3.687a3.842,3.842,0,0,0-.81-.1,1.668,1.668,0,0,0-1.686,1.26,2.216,2.216,0,0,0,1.087,2.774c.91.505,1.832.991,2.752,1.476l25.88,13.7a5.313,5.313,0,0,1,1.485,8.856c-4.081,4.4-17.511,18.892-17.511,18.892-.7.753-1.038.981-1.457.981a3.769,3.769,0,0,1-1.34-.4l-9.169-4.012c-.118-.054-.235-.109-.357-.154a2.635,2.635,0,0,0-.928-.172,2.149,2.149,0,0,0-1.91,1.09,2.026,2.026,0,0,0,.784,2.764l3.276,2.412c2.387,1.755,4.772,3.509,7.134,5.3a11.738,11.738,0,0,1,2.252,2.274c1.687,2.237,3.335,4.5,4.984,6.769l1.95,2.675a2.523,2.523,0,0,0,1.951,1.252,1.952,1.952,0,0,0,.964-.275,2.319,2.319,0,0,0,.769-3.171l-4.13-9.44a1.638,1.638,0,0,1,.48-2.339q4.2-3.907,8.413-7.8a1.732,1.732,0,0,1,1.158-.537,1.482,1.482,0,0,1,.776.24,1.385,1.385,0,0,1,.621,1.683,2.783,2.783,0,0,1-.692.951c-2.3,2.167-4.618,4.327-6.959,6.453a1.32,1.32,0,0,0-.38,1.761c.516,1.131,1.01,2.274,1.5,3.418.618,1.432,1.236,2.863,1.9,4.273a5.6,5.6,0,0,1,.011,5.062,4.937,4.937,0,0,1-3.461,2.629l-.088.015-.093.082Z" transform="translate(-687.451 -32.458)" fill="#e01b22"/>
      <path id="Path_22403" data-name="Path 22403" d="M739.773,107.77c-.762-.44-1.536-.867-2.309-1.294-1.719-.95-3.5-1.932-5.129-3.053A30.4,30.4,0,0,1,721.245,90.7a21.238,21.238,0,0,1-1.907-8.6c-.02-3.786-.016-7.573-.012-11.36l0-3.408a1.592,1.592,0,0,1,1.3-1.828l3.388-1.146c5.083-1.719,10.168-3.439,15.266-5.122a3.028,3.028,0,0,1,.932-.139,2.829,2.829,0,0,1,.875.129c6.174,2.033,12.393,4.131,18.49,6.235a3.5,3.5,0,0,1,1.061.729c.14.122.28.244.423.357V83.593l-.143.573c-.133.556-.249,1.118-.366,1.679a26.324,26.324,0,0,1-.912,3.56c-1.7,4.716-4.81,8.761-9.791,12.726a47.808,47.808,0,0,1-9.222,5.639Zm.452-45.587a2.09,2.09,0,0,0-.661.1q-3.855,1.285-7.705,2.589-4.341,1.464-8.688,2.918a1.111,1.111,0,0,0-.878,1.243c.016,2.837.015,5.672.013,8.509V81.5A19.514,19.514,0,0,0,725.4,92.1c3.154,4.965,7.687,8.852,14.266,12.236a1.116,1.116,0,0,0,.5.1h0a1.662,1.662,0,0,0,.72-.164,38.687,38.687,0,0,0,11.133-8.281c3.451-3.774,5.285-7.382,5.772-11.352.235-1.906.286-3.858.336-5.748.024-.861.045-1.723.086-2.582l.011-.268-.129,0V74.348c0-1.8-.005-3.6.011-5.4a1.032,1.032,0,0,0-.8-1.139q-3.817-1.277-7.632-2.568-4.418-1.488-8.838-2.968A1.941,1.941,0,0,0,740.226,62.183Z" transform="translate(-677.054 -23.768)" fill="#e01b22"/>
      <path id="Path_22404" data-name="Path 22404" d="M735.806,86.3c-.467,0-.94-.333-1.537-1.08l-6.236-7.793c-.154-.19-.253-.314-.348-.444a1.5,1.5,0,0,1,1.09-2.5,1.6,1.6,0,0,1,1.241.638c.949,1.164,1.886,2.339,2.823,3.514l1.353,1.7,1.926,2.383.2-.286c.086-.121.162-.236.232-.346a3.06,3.06,0,0,1,.374-.5q4.916-4.939,9.862-9.854a2.928,2.928,0,0,1,1.187-.724,1.228,1.228,0,0,1,.326-.048,1.34,1.34,0,0,1,1.083.67,1.376,1.376,0,0,1,0,1.643,3.9,3.9,0,0,1-.533.6L737.334,85.4A2.41,2.41,0,0,1,735.806,86.3Z" transform="translate(-674.451 -19.898)" fill="#e01b22"/>
    </g>
  </g>
</svg>
