<svg xmlns="http://www.w3.org/2000/svg" width="100" height="100" viewBox="0 0 100 100">
  <g id="Group_19380" data-name="Group 19380" transform="translate(-30 -1619)">
    <g id="Rectangle_11053" data-name="Rectangle 11053" transform="translate(30 1619)" fill="none" stroke="#fff" stroke-width="1" opacity="0">
      <rect width="100" height="100" stroke="none"/>
      <rect x="0.5" y="0.5" width="99" height="99" fill="none"/>
    </g>
    <circle id="Ellipse_9" data-name="Ellipse 9" cx="39.984" cy="39.984" r="39.984" transform="translate(49.996 1639.033)" fill="#ffe8e9"/>
    <g id="Rectangle_6311" data-name="Rectangle 6311" transform="translate(30 1619)" fill="none" stroke="#fff" stroke-width="1" opacity="0.01">
      <rect width="87" height="87" stroke="none"/>
      <rect x="0.5" y="0.5" width="86" height="86" fill="none"/>
    </g>
    <g id="Rectangle_6313" data-name="Rectangle 6313" transform="translate(30 1619)" fill="none" stroke="#fff" stroke-width="1" opacity="0.01">
      <rect width="87" height="87" stroke="none"/>
      <rect x="0.5" y="0.5" width="86" height="86" fill="none"/>
    </g>
    <g id="Group_18300" data-name="Group 18300" transform="translate(-387.736 1269.602)">
      <path id="Path_22536" data-name="Path 22536" d="M444.743,424.922h14.95c.018-.3.05-.57.05-.84,0-3.594-.013-7.186.013-10.779a3.605,3.605,0,0,0-1.152-2.752c-3.037-2.972-6.048-5.97-9.075-8.955-.863-.852-1.7-.942-2.372-.281-.7.688-.6,1.541.3,2.443,2.163,2.168,4.336,4.326,6.492,6.5a1.491,1.491,0,0,1,.09,2.294c-.662.558-1.44.451-2.238-.34q-3.3-3.264-6.581-6.543c-2.879-2.865-5.75-5.738-8.649-8.584a2.66,2.66,0,0,1-.843-2.078c.031-3.5.026-7,.008-10.5a4.236,4.236,0,0,0-3-4.177c0,1.266.005,2.5,0,3.728-.007,1.189-.55,1.876-1.48,1.889s-1.511-.678-1.517-1.85c-.008-1.78-.01-3.562,0-5.343.008-1.267.6-1.824,1.851-1.791a7.445,7.445,0,0,1,7.132,7.3c.05,3.28.031,6.561,0,9.841a1.964,1.964,0,0,0,.656,1.547c1.57,1.554,3.092,3.157,4.474,4.577a15.745,15.745,0,0,1,2.876-2.029,4.282,4.282,0,0,1,4.88,1.161q4.407,4.411,8.812,8.82a8.776,8.776,0,0,1,.679.9c.4-.368.647-.587.88-.82,2.807-2.8,5.712-5.52,8.386-8.446,2.2-2.406,5.767-2.782,8.026.6,1.748-1.774,3.483-3.514,5.179-5.289.174-.182.165-.581.166-.879.01-3.25-.01-6.5.012-9.749a7.47,7.47,0,0,1,6.539-7.484c1.775-.26,2.456.315,2.456,2.082,0,7.562.02,15.123-.029,22.683a4.182,4.182,0,0,1-.666,2.154q-5.218,7.947-10.552,15.819a3.751,3.751,0,0,0-.768,2.508c.068.862.014,1.735.014,2.708.566,0,1.058-.029,1.547.007a1.486,1.486,0,0,1,1.446,1.442,1.5,1.5,0,0,1-1.45,1.536c-.248.022-.5.009-.75.009H440.951c-.187,0-.375.007-.562,0a1.5,1.5,0,1,1-.012-3c.4-.014.811,0,1.355,0-.144-1.9.363-3.72-.916-5.54-3.59-5.108-7-10.344-10.428-15.563a4.347,4.347,0,0,1-.619-2.076c-.087-1.682-.036-3.373-.025-5.061.008-1.095.6-1.767,1.515-1.756s1.471.683,1.479,1.794c.01,1.5-.03,3,.022,4.5a2.789,2.789,0,0,0,.417,1.374q5.379,8.124,10.821,16.2a3.968,3.968,0,0,1,.759,2.529C444.7,422.512,444.743,423.667,444.743,424.922Zm33.006-.005c0-1.292.042-2.479-.014-3.663a3.719,3.719,0,0,1,.718-2.353q5.441-8.081,10.815-16.21a2.976,2.976,0,0,0,.462-1.547c.031-6.624.021-13.25.021-19.874v-.922a4.171,4.171,0,0,0-2.994,4.136c-.02,3.437-.035,6.875.012,10.31a3.023,3.023,0,0,1-.971,2.4c-3.5,3.438-6.953,6.923-10.423,10.393-1.591,1.591-3.176,3.189-4.777,4.768a1.487,1.487,0,0,1-2.1.285c-.823-.611-.831-1.558.014-2.409,2.2-2.217,4.424-4.414,6.622-6.637A1.508,1.508,0,1,0,473,401.5c-3.1,3.083-6.23,6.145-9.266,9.294a3.645,3.645,0,0,0-.947,2.234c-.094,3.81-.043,7.623-.041,11.435a3.181,3.181,0,0,0,.065.449Z" transform="translate(0 8.438)" fill="#3a3a3b"/>
      <path id="Path_22537" data-name="Path 22537" d="M441.225,373.882c0-1.75.018-3.5-.009-5.25a1.7,1.7,0,0,1,1.216-1.778c4.814-1.91,9.613-3.856,14.438-5.737a2.541,2.541,0,0,1,1.692-.018c4.824,1.881,9.623,3.827,14.433,5.745.694.276,1.229.681,1.223,1.48-.031,3.935.218,7.9-.2,11.8-.924,8.705-5.62,14.852-13.461,18.718a5.992,5.992,0,0,1-5.9-.016c-8.563-4.383-13.067-11.3-13.431-20.911C441.181,376.57,441.225,375.225,441.225,373.882Zm30,.7c0-1.5-.018-3,.01-4.5a.857.857,0,0,0-.617-.973c-4.123-1.62-8.23-3.279-12.351-4.9a1.445,1.445,0,0,0-.968-.038q-6.315,2.483-12.6,5.037a.886.886,0,0,0-.457.657,85.388,85.388,0,0,0,.226,10.48c1.031,7.75,5.4,13.115,12.62,16.129a1.8,1.8,0,0,0,1.233.01A19.893,19.893,0,0,0,470.5,383.037,28.45,28.45,0,0,0,471.229,374.578Z" transform="translate(3.519 3.542)" fill="#3a3a3b"/>
      <path id="Path_22538" data-name="Path 22538" d="M445.472,361.387c-.334.378-.618.939-1.059,1.123a1.644,1.644,0,0,1-1.443-.166c-1.568-1.422-3.07-2.922-4.538-4.449a1.38,1.38,0,0,1,.139-2.016,1.343,1.343,0,0,1,1.948-.094c1.553,1.485,3.041,3.04,4.53,4.59A3.662,3.662,0,0,1,445.472,361.387Z" transform="translate(2.553 1.841)" fill="#3a3a3b"/>
      <path id="Path_22539" data-name="Path 22539" d="M455.706,353.927c0,.937.017,1.874,0,2.811a1.515,1.515,0,0,1-1.531,1.647,1.5,1.5,0,0,1-1.456-1.622q-.031-2.859,0-5.718a1.5,1.5,0,1,1,2.987-.024C455.724,351.99,455.706,352.957,455.706,353.927Z" transform="translate(7.038)" fill="#3a3a3b"/>
      <path id="Path_22540" data-name="Path 22540" d="M436.485,373.065c-.938,0-1.876.017-2.812-.005a1.5,1.5,0,1,1,0-2.987q2.859-.029,5.718,0a1.5,1.5,0,1,1,0,2.987C438.422,373.082,437.453,373.065,436.485,373.065Z" transform="translate(0.71 6.327)" fill="#3a3a3b"/>
      <path id="Path_22541" data-name="Path 22541" d="M473.287,370.067c.968,0,1.937-.021,2.905.007a1.495,1.495,0,1,1-.01,2.984q-2.906.035-5.812,0a1.494,1.494,0,1,1,.01-2.982C471.349,370.047,472.318,370.067,473.287,370.067Z" transform="translate(11.967 6.328)" fill="#3a3a3b"/>
      <path id="Path_22542" data-name="Path 22542" d="M464.038,361.266a7.685,7.685,0,0,1,.718-1.178q1.875-2.032,3.8-4.013a1.513,1.513,0,1,1,2.168,2.07c-1.332,1.364-2.657,2.738-4.065,4.019a1.75,1.75,0,0,1-1.481.336C464.725,362.332,464.432,361.72,464.038,361.266Z" transform="translate(10.511 1.849)" fill="#3a3a3b"/>
      <path id="Path_22543" data-name="Path 22543" d="M432.728,387.605a1.494,1.494,0,1,1-1.5-1.459A1.51,1.51,0,0,1,432.728,387.605Z" transform="translate(0.006 11.255)" fill="#3a3a3b"/>
      <path id="Path_22544" data-name="Path 22544" d="M452.482,378.7c1.939-1.986,3.611-3.7,5.29-5.413q1.28-1.3,2.586-2.58c.809-.786,1.659-.843,2.3-.182a1.482,1.482,0,0,1-.161,2.239q-4.354,4.387-8.744,8.739a1.428,1.428,0,0,1-2.3,0q-1.417-1.362-2.781-2.781a1.49,1.49,0,1,1,2.086-2.108,9.391,9.391,0,0,1,.931.921A13.916,13.916,0,0,1,452.482,378.7Z" transform="translate(5.636 6.332)" fill="#3a3a3b"/>
    </g>
  </g>
</svg>
